# xmcd
#
# Track frame offsets: 
#        150
#        10595
#        28447
#        42582
#        53602
#        73742
#        85545
#        99287
#        114922
#        128117
#        140680
#        156335
#
# Disc length: 2273 seconds
#
# Revision: 2
# Processed by: cddbd v1.4PL0 Copyright (c) Steve Scherf et al.
# Submitted via: ExactAudioCopy v0.90b3
#
DISCID=9a08df0c
DTITLE=Chris LeDoux - Old Cowboy Heroes
DYEAR=1981
DGENRE=Country
TTITLE0=What More Could A Cowboy Need
TTITLE1=A Cowboy Like Me
TTITLE2=Where Is The Glory
TTITLE3=Wife Behind The Glory
TTITLE4=Little Joe The Wrangler
TTITLE5=Freedom Ain't Free
TTITLE6=(Ghost) Riders In The Sky
TTITLE7=Too Old To Play Cowboy
TTITLE8=Too Tough To Die
TTITLE9=The Life Of A Rodeo Cowboy
TTITLE10=Old Jake
TTITLE11=Song Of Wyoming
EXTD=YEAR: 1981 ID3G:   2
EXTT0=
EXTT1=
EXTT2=
EXTT3=
EXTT4=
EXTT5=
EXTT6=
EXTT7=
EXTT8=
EXTT9=
EXTT10=
EXTT11=
PLAYORDER=
